<svg width="128" height="128" viewBox="0 0 128 128" fill="none" xmlns="http://www.w3.org/2000/svg">
<path d="M109.113 44.6834C108.089 44.6834 107.258 45.5139 107.258 46.5383V113.769C107.258 117.264 104.415 120.108 100.92 120.108H28.8525C25.3571 120.108 22.5137 117.264 22.5137 113.769V113.663H32.9289C33.9533 113.663 34.7838 112.832 34.7838 111.808V84.377C34.7838 83.3526 33.9533 82.5221 32.9289 82.5221H14.8766C13.0155 82.5221 11.5017 81.008 11.5017 79.1472C11.5017 77.2863 13.0158 75.7722 14.8766 75.7722H32.9289C33.9533 75.7722 34.7838 74.9417 34.7838 73.9173V20.5263C34.7838 19.5019 33.9533 18.6714 32.9289 18.6714H9.70242C4.35261 18.6714 0 23.024 0 28.3738V103.614C0 109.155 4.50793 113.663 10.0487 113.663H18.8039V113.769C18.8039 119.31 23.3118 123.818 28.8525 123.818H100.92C106.461 123.818 110.968 119.31 110.968 113.769V46.5383C110.968 45.5139 110.138 44.6834 109.113 44.6834ZM3.70982 103.614V28.3738C3.70982 25.0696 6.39821 22.3812 9.70242 22.3812H31.074V72.0622H14.8766C10.9699 72.0622 7.79186 75.2405 7.79186 79.1469C7.79186 83.0534 10.9702 86.2317 14.8766 86.2317H31.074V109.953H10.0487C6.55352 109.953 3.70982 107.109 3.70982 103.614Z" fill="#F2F2F2"/>
<path d="M71.1463 103.669V94.2995C71.1463 93.2751 70.3158 92.4446 69.2914 92.4446C68.267 92.4446 67.4365 93.2751 67.4365 94.2995V103.669C67.4365 104.693 68.267 105.524 69.2914 105.524C70.3158 105.524 71.1463 104.693 71.1463 103.669Z" fill="#F2F2F2"/>
<path d="M63.9784 103.669V88.3874C63.9784 87.363 63.1479 86.5325 62.1235 86.5325C61.0991 86.5325 60.2686 87.363 60.2686 88.3874V103.669C60.2686 104.694 61.0991 105.524 62.1235 105.524C63.1479 105.524 63.9784 104.694 63.9784 103.669Z" fill="#F2F2F2"/>
<path d="M53.0996 103.669C53.0996 104.694 53.9301 105.524 54.9545 105.524C55.9789 105.524 56.8094 104.694 56.8094 103.669V97.5558C56.8094 96.5314 55.9789 95.7009 54.9545 95.7009C53.9301 95.7009 53.0996 96.5314 53.0996 97.5558V103.669Z" fill="#F2F2F2"/>
<path d="M49.6405 103.669V84.172C49.6405 83.1476 48.81 82.3171 47.7856 82.3171C46.7612 82.3171 45.9307 83.1476 45.9307 84.172V103.669C45.9307 104.694 46.7612 105.524 47.7856 105.524C48.81 105.524 49.6405 104.694 49.6405 103.669Z" fill="#F2F2F2"/>
<path d="M119.091 4H101.236C96.3235 4 92.327 7.99647 92.327 12.9088V18.6714H41.9526C40.9282 18.6714 40.0977 19.5019 40.0977 20.5263C40.0977 21.5507 40.9282 22.3812 41.9526 22.3812H92.327V30.7636C92.327 35.6759 96.3235 39.6724 101.236 39.6724H119.091C124.003 39.6724 127.999 35.6759 127.999 30.7636V12.9088C127.999 7.99647 124.003 4 119.091 4ZM124.29 30.7636C124.29 33.6304 121.957 35.9626 119.091 35.9626H101.236C98.3691 35.9626 96.0368 33.6304 96.0368 30.7636V20.5287C96.0368 20.528 96.0368 20.5273 96.0368 20.5263C96.0368 20.5253 96.0368 20.5248 96.0368 20.5238V12.9088C96.0368 10.0421 98.3691 7.70982 101.236 7.70982H119.091C121.957 7.70982 124.29 10.0421 124.29 12.9088V30.7636Z" fill="#F2F2F2"/>
<path d="M41.5713 50.335C41.5713 53.0402 43.7722 55.2413 46.4777 55.2413H69.8453C72.5505 55.2413 74.7517 53.0404 74.7517 50.335V45.7699C74.7517 43.0647 72.5508 40.8635 69.8453 40.8635H46.4777C43.7724 40.8635 41.5713 43.0644 41.5713 45.7699V50.335ZM45.2811 45.7701C45.2811 45.1105 45.8178 44.5736 46.4777 44.5736H69.8453C70.5049 44.5736 71.0419 45.1103 71.0419 45.7701V50.3352C71.0419 50.9948 70.5052 51.5317 69.8453 51.5317H46.4777C45.818 51.5317 45.2811 50.995 45.2811 50.3352V45.7701Z" fill="#F2F2F2"/>
<path d="M102.001 45.7701C102.001 43.0649 99.7998 40.8638 97.0943 40.8638H85.4044C82.6992 40.8638 80.498 43.0647 80.498 45.7701V67.1847C80.498 69.8899 82.699 72.0911 85.4044 72.0911H97.0943C99.7995 72.0911 102.001 69.8902 102.001 67.1847V45.7701ZM98.2908 67.1847C98.2908 67.8443 97.7542 68.3813 97.0943 68.3813H85.4044C84.7448 68.3813 84.2079 67.8446 84.2079 67.1847V45.7701C84.2079 45.1105 84.7446 44.5736 85.4044 44.5736H97.0943C97.7539 44.5736 98.2908 45.1103 98.2908 45.7701V67.1847Z" fill="#F2F2F2"/>
<path d="M41.5713 67.1847C41.5713 69.8899 43.7722 72.091 46.4777 72.091H69.8453C72.5505 72.091 74.7517 69.8901 74.7517 67.1847V62.6196C74.7517 59.9144 72.5508 57.7133 69.8453 57.7133H46.4777C43.7724 57.7133 41.5713 59.9142 41.5713 62.6196V67.1847ZM45.2811 62.6199C45.2811 61.9603 45.8178 61.4233 46.4777 61.4233H69.8453C70.5049 61.4233 71.0419 61.96 71.0419 62.6199V67.1849C71.0419 67.8445 70.5052 68.3815 69.8453 68.3815H46.4777C45.818 68.3815 45.2811 67.8448 45.2811 67.1849V62.6199Z" fill="#F2F2F2"/>
<path d="M81.6225 101.772C82.3395 102.004 83.4515 101.813 83.9837 100.647C84.0854 100.38 85.0655 98.0348 88.1667 98.0348H88.2456C90.6505 98.0363 93.3646 98.0351 95.5979 97.0218C98.4209 95.7409 99.8524 93.1762 99.8524 89.3991C99.8524 88.3747 99.0219 87.5442 97.9974 87.5442C96.973 87.5442 96.1425 88.3747 96.1425 89.3991C96.1425 92.3257 95.0323 93.2046 94.0653 93.6434C92.5814 94.3168 90.4225 94.325 88.325 94.325C88.2987 94.325 88.2723 94.325 88.2463 94.325H88.1672C82.3413 94.325 80.5648 99.1893 80.4918 99.3963C80.1517 100.363 80.6563 101.432 81.6225 101.772Z" fill="#F2F2F2"/>
<path d="M82.353 109.203C81.3286 109.203 80.498 110.034 80.498 111.058C80.498 112.082 81.3286 112.913 82.353 112.913H100.146C101.17 112.913 102 112.082 102 111.058C102 110.034 101.17 109.203 100.146 109.203H82.353Z" fill="#F2F2F2"/>
<path d="M43.5234 111.058C43.5234 112.082 44.3539 112.913 45.3783 112.913H72.8968C73.9212 112.913 74.7517 112.082 74.7517 111.058C74.7517 110.034 73.9212 109.203 72.8968 109.203H45.3783C44.3537 109.203 43.5234 110.034 43.5234 111.058Z" fill="#F2F2F2"/>
<path d="M10.0712 31.8582C11.0519 31.6263 11.659 30.6434 11.4272 29.6627C11.1954 28.682 10.2125 28.0749 9.23176 28.3067C8.25107 28.5386 7.64398 29.5215 7.87579 30.5022C8.10761 31.4829 9.09054 32.09 10.0712 31.8582Z" fill="#F2F2F2"/>
<path d="M16.6791 31.9474H25.7445C26.7689 31.9474 27.5994 31.1169 27.5994 30.0925C27.5994 29.0681 26.7689 28.2375 25.7445 28.2375H16.6791C15.6547 28.2375 14.8242 29.0681 14.8242 30.0925C14.8242 31.1169 15.6547 31.9474 16.6791 31.9474Z" fill="#F2F2F2"/>
<path d="M10.9313 42.1885C11.6439 41.4759 11.6439 40.3205 10.9313 39.6079C10.2187 38.8953 9.06338 38.8953 8.3508 39.6079C7.63821 40.3205 7.63821 41.4759 8.3508 42.1885C9.06338 42.9011 10.2187 42.9011 10.9313 42.1885Z" fill="#F2F2F2"/>
<path d="M16.6791 42.7565H25.7445C26.7689 42.7565 27.5994 41.9259 27.5994 40.9015C27.5994 39.8771 26.7689 39.0466 25.7445 39.0466H16.6791C15.6547 39.0466 14.8242 39.8771 14.8242 40.9015C14.8242 41.9259 15.6547 42.7565 16.6791 42.7565Z" fill="#F2F2F2"/>
<path d="M9.92822 53.5096C10.923 53.3484 11.5988 52.4112 11.4375 51.4164C11.2762 50.4216 10.339 49.7458 9.34423 49.9071C8.34942 50.0684 7.6737 51.0055 7.83497 52.0004C7.99623 52.9952 8.93342 53.6709 9.92822 53.5096Z" fill="#F2F2F2"/>
<path d="M16.6791 53.5657H25.7445C26.7689 53.5657 27.5994 52.7352 27.5994 51.7107C27.5994 50.6863 26.7689 49.8558 25.7445 49.8558H16.6791C15.6547 49.8558 14.8242 50.6863 14.8242 51.7107C14.8242 52.7352 15.6547 53.5657 16.6791 53.5657Z" fill="#F2F2F2"/>
<path d="M10.0791 64.278C11.0598 64.0462 11.6669 63.0633 11.4351 62.0826C11.2032 61.1019 10.2203 60.4948 9.23958 60.7266C8.25888 60.9584 7.6518 61.9414 7.88362 62.9221C8.11545 63.9028 9.09839 64.5099 10.0791 64.278Z" fill="#F2F2F2"/>
<path d="M16.6791 64.3751H25.7445C26.7689 64.3751 27.5994 63.5446 27.5994 62.5202C27.5994 61.4958 26.7689 60.6653 25.7445 60.6653H16.6791C15.6547 60.6653 14.8242 61.4958 14.8242 62.5202C14.8242 63.5446 15.6547 64.3751 16.6791 64.3751Z" fill="#F2F2F2"/>
<path d="M10.0878 95.3596C11.0685 95.1277 11.6756 94.1448 11.4438 93.1641C11.212 92.1834 10.2291 91.5763 9.24836 91.8081C8.26767 92.04 7.66057 93.0229 7.89238 94.0036C8.12419 94.9843 9.10712 95.5914 10.0878 95.3596Z" fill="#F2F2F2"/>
<path d="M27.5996 93.6098C27.5996 92.5854 26.7691 91.7549 25.7447 91.7549H16.6791C15.6547 91.7549 14.8242 92.5854 14.8242 93.6098C14.8242 94.6342 15.6547 95.4647 16.6791 95.4647H25.7445C26.7691 95.4647 27.5996 94.6342 27.5996 93.6098Z" fill="#F2F2F2"/>
<path d="M52.0327 31.9474C53.0571 31.9474 53.8877 31.1169 53.8877 30.0925C53.8877 29.0681 53.0571 28.2375 52.0327 28.2375H43.4262C42.4018 28.2375 41.5713 29.0681 41.5713 30.0925C41.5713 31.1169 42.4018 31.9474 43.4262 31.9474H52.0327Z" fill="#F2F2F2"/>
<path d="M115.341 20.5305C116.263 19.3886 116.817 17.9375 116.817 16.3589C116.817 12.6901 113.832 9.70544 110.163 9.70544C106.495 9.70544 103.51 12.6901 103.51 16.3589C103.51 17.9373 104.063 19.3883 104.985 20.5305C101.83 22.1197 99.4892 25.1277 98.8511 28.8137C98.6859 29.7694 98.9481 30.7416 99.5711 31.4816C100.19 32.2166 101.096 32.6383 102.057 32.6383H118.27C119.231 32.6383 120.138 32.2166 120.756 31.4816C121.379 30.7416 121.642 29.7694 121.476 28.8137C120.838 25.1279 118.497 22.12 115.341 20.5305ZM107.219 16.3589C107.219 14.7357 108.54 13.4153 110.163 13.4153C111.786 13.4153 113.107 14.7357 113.107 16.3589C113.107 17.9821 111.786 19.3025 110.163 19.3025C108.54 19.3025 107.219 17.9821 107.219 16.3589ZM102.614 28.9288C103.455 25.4705 106.55 23.0126 110.163 23.0126C113.776 23.0126 116.871 25.4705 117.712 28.9288H102.614Z" fill="#F2F2F2"/>
<path d="M55.3828 91.1165C56.3635 90.8847 56.9706 89.9018 56.7388 88.9211C56.5069 87.9404 55.524 87.3333 54.5433 87.5651C53.5626 87.7969 52.9555 88.7799 53.1873 89.7606C53.4192 90.7413 54.4021 91.3484 55.3828 91.1165Z" fill="#F2F2F2"/>
</svg>
