<svg width="33" height="32" viewBox="0 0 33 32" fill="none" xmlns="http://www.w3.org/2000/svg">
<path fill-rule="evenodd" clip-rule="evenodd" d="M28.8574 29H4.85742C4.30542 29 3.85742 28.552 3.85742 28V13H7.85742C7.33642 13.75 7.16042 15.149 7.16042 16.037C7.16042 21.392 11.5274 25.749 16.8944 25.749C22.2624 25.749 26.6294 21.392 26.6294 16.037C26.6294 15.149 26.5034 13.771 25.8574 13H29.8574V28C29.8574 28.552 29.4094 29 28.8574 29ZM16.8944 9.898C20.2934 9.898 23.0484 12.647 23.0484 16.037C23.0484 19.428 20.2934 22.177 16.8944 22.177C13.4964 22.177 10.7414 19.428 10.7414 16.037C10.7414 12.647 13.4964 9.898 16.8944 9.898ZM24.8574 4H27.8574C28.4094 4 28.8574 4.448 28.8574 5V8C28.8574 8.552 28.4094 9 27.8574 9H24.8574C24.3054 9 23.8574 8.552 23.8574 8V5C23.8574 4.448 24.3054 4 24.8574 4ZM29.0534 0H4.66142C2.56042 0 0.857422 1.699 0.857422 3.795V28.205C0.857422 30.301 2.56042 32 4.66142 32H29.0534C31.1544 32 32.8574 30.301 32.8574 28.205V3.795C32.8574 1.699 31.1544 0 29.0534 0Z" fill="#174865"/>
</svg>
