<svg width="128" height="128" viewBox="0 0 128 128" fill="none" xmlns="http://www.w3.org/2000/svg">
<path d="M117.333 8.53301H76.7998V6.39951C76.7998 2.86464 73.9346 -0.000510835 70.3998 -0.000510835H53.3332C49.7988 -0.000510835 46.9332 2.86464 46.9332 6.39951V23.4661C46.9332 27.0005 49.7983 29.8661 53.3332 29.8661H55.4667V36.2661H51.2002C51.2002 35.0878 50.245 34.1326 49.0667 34.1326C47.8884 34.1326 46.9332 35.0878 46.9332 36.2661H38.4001V27.7326C39.5784 27.7326 40.5336 26.7774 40.5336 25.5991C40.5336 24.4208 39.5784 23.4656 38.4001 23.4656V17.0661C39.5784 17.0661 40.5336 16.1109 40.5336 14.9326C40.5336 13.7543 39.5784 12.7991 38.4001 12.7991V6.39951C39.5784 6.39951 40.5336 5.44431 40.5336 4.26602C40.5336 3.08773 39.5784 2.13252 38.4001 2.13252C38.4001 0.95423 37.4449 -0.000976562 36.2666 -0.000976562C35.0883 -0.000976562 34.1331 0.95423 34.1331 2.13252V36.2657H29.8666C29.8666 35.0874 28.9114 34.1322 27.7331 34.1322C26.5548 34.1322 25.5996 35.0874 25.5996 36.2657H19.2001C19.2001 35.0874 18.2449 34.1322 17.0666 34.1322C15.8883 34.1322 14.9331 35.0874 14.9331 36.2657H8.53352C8.53352 35.0874 7.57831 34.1322 6.40002 34.1322C5.22173 34.1322 4.26653 35.0874 4.26653 36.2657H2.1335C0.955206 36.2661 0 37.2213 0 38.3996C0 39.5779 0.955206 40.5331 2.1335 40.5331H8.53352C8.53352 41.7114 9.48872 42.6666 10.667 42.6666C11.8453 42.6666 12.8005 41.7114 12.8005 40.5331H19.2005C19.2005 41.7114 20.1557 42.6666 21.334 42.6666C22.5123 42.6666 23.4675 41.7114 23.4675 40.5331H27.7341C27.7341 41.7114 28.6893 42.6666 29.8675 42.6666C31.0458 42.6666 32.001 41.7114 32.001 40.5331H36.2676V46.9331C35.0893 46.9331 34.1341 47.8884 34.1341 49.0666C34.1341 50.2449 35.0893 51.2001 36.2676 51.2001V61.8667C35.0893 61.8667 34.1341 62.8219 34.1341 64.0002C34.1341 65.1785 35.0883 66.1328 36.2666 66.1328V74.6663C36.2666 75.8446 37.2218 76.7998 38.4001 76.7998C39.5784 76.7998 40.5336 75.8446 40.5336 74.6663C41.7119 74.6663 42.6671 73.7111 42.6671 72.5328C42.6671 71.3545 41.7119 70.3993 40.5336 70.3993V57.5992C41.7119 57.5992 42.6671 56.644 42.6671 55.4657C42.6671 54.2874 41.7119 53.3322 40.5336 53.3322V40.5327H55.4672V46.9327H53.3337C49.7993 46.9327 46.9337 49.7978 46.9337 53.3327V70.3993C46.9337 73.9337 49.7988 76.7993 53.3337 76.7993H55.4672V117.332C55.4742 123.221 60.2455 127.992 66.1337 127.999H117.333C123.222 127.992 127.993 123.221 128 117.332V19.1996C127.993 13.3114 123.221 8.53999 117.333 8.53301ZM76.7998 12.7995H106.666V17.0661C106.666 18.2444 105.711 19.1996 104.533 19.1996H78.9328C77.7545 19.1996 76.7993 18.2444 76.7993 17.0661V12.7995H76.7998ZM53.3332 25.5996C52.1549 25.5996 51.1997 24.6444 51.1997 23.4661V6.39951C51.1997 5.22122 52.1549 4.26602 53.3332 4.26602H70.3998C71.5781 4.26602 72.5333 5.22122 72.5333 6.39951V8.53301H66.1333C60.2451 8.53999 55.4737 13.3114 55.4667 19.1996V25.5996H53.3332ZM53.3332 72.5328C52.1549 72.5328 51.1997 71.5776 51.1997 70.3993V53.3327C51.1997 52.1544 52.1549 51.1992 53.3332 51.1992H55.4667V72.5323H53.3332V72.5328ZM123.733 117.332C123.733 120.867 120.868 123.732 117.333 123.732H66.1333C62.5989 123.732 59.7332 120.867 59.7332 117.332V19.1996C59.7332 15.6652 62.5984 12.7995 66.1333 12.7995H72.5333V17.0661C72.5333 20.6005 75.3984 23.4661 78.9333 23.4661H104.533C108.068 23.4661 110.933 20.6009 110.933 17.0661V12.7995H117.333C120.868 12.7995 123.733 15.6647 123.733 19.1996V117.332H123.733Z" fill="#F2F2F2"/>
<path d="M12.7997 21.3324H17.0663C19.4228 21.3324 21.3328 19.422 21.3328 17.0659V12.7994C21.3328 10.4428 19.4224 8.53284 17.0663 8.53284H12.7997C10.4431 8.53284 8.5332 10.4432 8.5332 12.7994V17.0659C8.5332 19.4225 10.4431 21.3324 12.7997 21.3324ZM12.7997 12.7994H17.0663V17.0659H12.7997V12.7994Z" fill="#F2F2F2"/>
<path d="M6.40002 29.8666H23.4666C27.001 29.8666 29.8666 27.0015 29.8666 23.4666V6.40002C29.8666 2.86515 27.0015 0 23.4666 0H6.40002C2.86515 0 0 2.86515 0 6.40002V23.4666C0 27.0015 2.86515 29.8666 6.40002 29.8666ZM4.26653 6.40002C4.26653 5.22173 5.22173 4.26653 6.40002 4.26653H23.4666C24.6449 4.26653 25.6001 5.22173 25.6001 6.40002V23.4666C25.6001 24.6449 24.6449 25.6001 23.4666 25.6001H6.40002C5.22173 25.6001 4.26653 24.6449 4.26653 23.4666V6.40002Z" fill="#F2F2F2"/>
<path d="M17.0663 55.4659H12.7997C10.4431 55.4659 8.5332 57.3764 8.5332 59.7325V63.999C8.5332 66.3556 10.4436 68.2655 12.7997 68.2655H17.0663C19.4228 68.2655 21.3328 66.3551 21.3328 63.999V59.7325C21.3328 57.3759 19.4228 55.4659 17.0663 55.4659ZM12.7997 63.999V59.7325H17.0663V63.999H12.7997Z" fill="#F2F2F2"/>
<path d="M23.4666 46.9325H6.40002C2.86515 46.9325 0 49.7981 0 53.3325V70.3991C0 73.9335 2.86515 76.7991 6.40002 76.7991H23.4666C27.001 76.7991 29.8666 73.934 29.8666 70.3991V53.3325C29.8666 49.7981 27.0015 46.9325 23.4666 46.9325ZM25.6001 70.3991C25.6001 71.5774 24.6449 72.5326 23.4666 72.5326H6.40002C5.22173 72.5326 4.26653 71.5774 4.26653 70.3991V53.3325C4.26653 52.1542 5.22173 51.199 6.40002 51.199H23.4666C24.6449 51.199 25.6001 52.1542 25.6001 53.3325V70.3991Z" fill="#F2F2F2"/>
<path d="M66.1335 23.4659C67.3118 23.4659 68.267 22.5107 68.267 21.3324V19.1989C68.267 18.0206 67.3118 17.0654 66.1335 17.0654C64.9552 17.0654 64 18.0206 64 19.1989V21.3324C64 22.5107 64.9552 23.4659 66.1335 23.4659Z" fill="#F2F2F2"/>
<path d="M117.333 17.0658C116.154 17.0658 115.199 18.021 115.199 19.1993V21.3328C115.199 22.5111 116.154 23.4663 117.333 23.4663C118.511 23.4663 119.466 22.5111 119.466 21.3328V19.1993C119.466 18.021 118.511 17.0658 117.333 17.0658Z" fill="#F2F2F2"/>
<path d="M104.533 115.199H78.9333C77.755 115.199 76.7998 116.154 76.7998 117.333C76.7998 118.511 77.755 119.466 78.9333 119.466H104.533C105.712 119.466 106.667 118.511 106.667 117.333C106.667 116.154 105.711 115.199 104.533 115.199Z" fill="#F2F2F2"/>
<path d="M66.133 57.599C67.3113 57.599 68.2665 56.6438 68.2665 55.4656V46.932H76.8C77.9783 46.932 78.9335 45.9768 78.9335 44.7985C78.9335 43.6202 77.9783 42.665 76.8 42.665H68.2665C65.9099 42.665 64 44.5755 64 46.9316V55.4651C63.9995 56.6443 64.9547 57.599 66.133 57.599Z" fill="#F2F2F2"/>
<path d="M115.2 42.6659H106.667C105.488 42.6659 104.533 43.6211 104.533 44.7994C104.533 45.9777 105.488 46.9329 106.667 46.9329H115.2V55.4664C115.2 56.6447 116.155 57.5999 117.334 57.5999C118.512 57.5999 119.467 56.6447 119.467 55.4664V46.9329C119.467 44.5763 117.556 42.6659 115.2 42.6659Z" fill="#F2F2F2"/>
<path d="M78.933 95.9991C78.933 94.8208 77.9778 93.8656 76.7995 93.8656H68.266V85.3321C68.266 84.1538 67.3108 83.1986 66.1325 83.1986C64.9542 83.1986 63.999 84.1538 63.999 85.3321V93.8656C63.999 96.2222 65.9094 98.1322 68.2655 98.1322H76.7991C77.9778 98.1326 78.933 97.1774 78.933 95.9991Z" fill="#F2F2F2"/>
<path d="M117.333 83.1991C116.154 83.1991 115.199 84.1543 115.199 85.3326V93.8661H106.666C105.487 93.8661 104.532 94.8213 104.532 95.9996C104.532 97.1779 105.487 98.1331 106.666 98.1331H115.199C117.556 98.1331 119.466 96.2227 119.466 93.8666V85.3331C119.466 84.1543 118.511 83.1991 117.333 83.1991Z" fill="#F2F2F2"/>
<path d="M85.3335 78.9325C85.3335 77.7542 84.3783 76.799 83.2 76.799C82.0217 76.799 81.0665 77.7542 81.0665 78.9325C81.073 83.9996 84.6368 88.3654 89.6 89.3858V89.5991C89.6 90.7774 90.5552 91.7326 91.7335 91.7326C92.9118 91.7326 93.867 90.7774 93.867 89.5991V89.3858C99.6402 88.2135 103.37 82.5829 102.197 76.8097C101.345 72.6121 98.0646 69.3316 93.867 68.4793V55.8585C96.415 56.7593 98.1224 59.1633 98.1336 61.866C98.1336 63.0443 99.0888 63.9995 100.267 63.9995C101.445 63.9995 102.401 63.0443 102.401 61.866C102.394 56.7989 98.8303 52.4331 93.867 51.4127V51.1994C93.867 50.0211 92.9118 49.0659 91.7335 49.0659C90.5552 49.0659 89.6 50.0211 89.6 51.1994V51.4127C83.8269 52.5849 80.0969 58.2156 81.2691 63.9887C82.1214 68.1863 85.402 71.4669 89.6 72.3192V84.9423C87.0516 84.0411 85.3438 81.6356 85.3335 78.9325ZM98.1336 78.9325C98.1224 81.6351 96.415 84.0392 93.867 84.9399V72.9251C96.4146 73.8258 98.1224 76.2299 98.1336 78.9325ZM85.3335 61.866C85.3447 59.1633 87.052 56.7593 89.6 55.8585V67.8734C87.052 66.9727 85.3447 64.5681 85.3335 61.866Z" fill="#F2F2F2"/>
</svg>
