<svg width="32" height="32" viewBox="0 0 32 32" fill="none" xmlns="http://www.w3.org/2000/svg">
<path fill-rule="evenodd" clip-rule="evenodd" d="M8.798 26.924L9.279 27.21C11.304 28.411 13.624 29.046 15.989 29.047H15.995C23.261 29.047 29.176 23.134 29.179 15.867C29.18 12.346 27.81 9.034 25.321 6.543C22.832 4.052 19.521 2.679 16 2.678C8.728 2.678 2.814 8.59 2.811 15.857C2.81 18.347 3.507 20.772 4.827 22.871L5.14 23.369L3.808 28.233L8.798 26.924ZM0 32L2.25 23.783C0.862 21.378 0.132 18.65 0.133 15.856C0.136 7.113 7.252 0 15.995 0C20.238 0.001 24.221 1.653 27.215 4.65C30.21 7.647 31.858 11.631 31.857 15.868C31.853 24.611 24.737 31.725 15.995 31.725H15.988C13.334 31.724 10.725 31.058 8.408 29.795L0 32Z" fill="#174865"/>
<path fill-rule="evenodd" clip-rule="evenodd" d="M12.1018 9.2272C11.7798 8.4542 11.4538 8.5592 11.2098 8.5472C10.9788 8.5352 10.7148 8.5332 10.4508 8.5332C10.1858 8.5332 9.75684 8.6322 9.39384 9.0292C9.03084 9.4252 8.00684 10.3842 8.00684 12.3342C8.00684 14.2842 9.42684 16.1682 9.62484 16.4332C9.82284 16.6972 12.4198 20.6992 16.3948 22.4152C17.3408 22.8232 18.0788 23.0672 18.6548 23.2502C19.6038 23.5512 20.4678 23.5092 21.1508 23.4072C21.9128 23.2932 23.4958 22.4482 23.8258 21.5232C24.1568 20.5972 24.1568 19.8042 24.0578 19.6392C23.9588 19.4742 23.6938 19.3742 23.2978 19.1762C22.9018 18.9782 20.9528 18.0192 20.5898 17.8872C20.2258 17.7552 19.9618 17.6892 19.6978 18.0852C19.4338 18.4822 18.6738 19.3742 18.4428 19.6392C18.2118 19.9032 17.9808 19.9362 17.5838 19.7382C17.1878 19.5402 15.9108 19.1212 14.3968 17.7712C13.2188 16.7212 12.4238 15.4232 12.1918 15.0272C11.9608 14.6302 12.1678 14.4162 12.3658 14.2182C12.5438 14.0412 12.7628 13.7552 12.9608 13.5242C13.1588 13.2932 13.2248 13.1272 13.3568 12.8632C13.4888 12.5982 13.4228 12.3672 13.3238 12.1692C13.2248 11.9702 12.4318 10.0202 12.1018 9.2272Z" fill="#174865"/>
</svg>
