<svg width="150" height="40" viewBox="0 0 150 40" fill="none" xmlns="http://www.w3.org/2000/svg">
<path d="M24.1267 18.9087V24.3357C24.1267 24.3795 24.0911 24.4151 24.0473 24.4151H18.0552V38.5706C18.0552 38.6362 17.9803 38.6734 17.928 38.6339L16.0049 37.1791C15.9766 37.1577 15.9375 37.1577 15.9091 37.1791L13.9067 38.6939C13.8784 38.7154 13.8393 38.7154 13.8109 38.6939L11.8085 37.1791C11.7802 37.1577 11.741 37.1577 11.7127 37.1791L9.71027 38.6939C9.68194 38.7154 9.64283 38.7154 9.61451 38.6939L7.61205 37.1791C7.58373 37.1577 7.54462 37.1577 7.51629 37.1791L5.51384 38.6939C5.48552 38.7154 5.4464 38.7154 5.41808 38.6939L3.41563 37.1791C3.3873 37.1577 3.34819 37.1577 3.31986 37.1791L1.39678 38.6339C1.3445 38.6734 1.26953 38.6362 1.26953 38.5706V19.0476C1.26953 17.2943 2.69085 15.873 4.44413 15.873H21.091C22.7675 15.873 24.1267 17.2322 24.1267 18.9087Z" fill="#174865"/>
<path d="M24.1267 18.9087V24.3357C24.1267 24.3795 24.0911 24.4151 24.0473 24.4151H18.0552V38.5706C18.0552 38.6362 17.9803 38.6734 17.928 38.6339L16.0049 37.1791C15.9766 37.1577 15.9375 37.1577 15.9091 37.1791L13.9067 38.6939C13.8784 38.7154 13.8393 38.7154 13.8109 38.6939L11.8085 37.1791C11.7802 37.1577 11.741 37.1577 11.7127 37.1791L9.71027 38.6939C9.68194 38.7154 9.64283 38.7154 9.61451 38.6939L7.61205 37.1791C7.58373 37.1577 7.54462 37.1577 7.51629 37.1791L5.51384 38.6939C5.48552 38.7154 5.4464 38.7154 5.41808 38.6939L3.41563 37.1791C3.3873 37.1577 3.34819 37.1577 3.31986 37.1791L1.39678 38.6339C1.3445 38.6734 1.26953 38.6362 1.26953 38.5706V19.0476C1.26953 17.2943 2.69085 15.873 4.44413 15.873H21.091C22.7675 15.873 24.1267 17.2322 24.1267 18.9087Z" fill="#F7C50D"/>
<path d="M18.0552 24.4151H24.0473C24.0911 24.4151 24.1267 24.3795 24.1267 24.3357V18.9087C24.1267 17.2322 22.7675 15.873 21.091 15.873M18.0552 24.4151V18.9087C18.0552 17.2322 19.4144 15.873 21.091 15.873M18.0552 24.4151V38.5706C18.0552 38.6362 17.9803 38.6734 17.928 38.6339L16.0049 37.1791C15.9766 37.1577 15.9375 37.1577 15.9091 37.1791L13.9067 38.6939C13.8784 38.7154 13.8393 38.7154 13.8109 38.6939L11.8085 37.1791C11.7802 37.1577 11.741 37.1577 11.7127 37.1791L9.71027 38.6939C9.68194 38.7154 9.64283 38.7154 9.61451 38.6939L7.61205 37.1791C7.58373 37.1577 7.54462 37.1577 7.51629 37.1791L5.51384 38.6939C5.48552 38.7154 5.4464 38.7154 5.41808 38.6939L3.41563 37.1791C3.3873 37.1577 3.34819 37.1577 3.31986 37.1791L1.39678 38.6339C1.3445 38.6734 1.26953 38.6362 1.26953 38.5706V19.0476C1.26953 17.2943 2.69085 15.873 4.44413 15.873H21.091M15.1634 32.9563H9.66239M15.1634 21.5675H3.89912M3.89912 24.4147H15.1634M3.89912 27.2619H15.1634" stroke="#174865" stroke-linecap="round"/>
<path d="M33.1928 15.6137C33.6396 15.6137 34.0087 15.7594 34.3001 16.0509C34.5916 16.3228 34.7373 16.7308 34.7373 17.2748C34.7373 17.8576 34.6887 18.3822 34.5916 18.8485C34.4556 19.6256 34.3779 20.053 34.3584 20.1307C34.9218 18.8096 35.5921 17.7314 36.3692 16.896C37.1658 16.0411 38.0497 15.6137 39.0211 15.6137C39.7205 15.6137 40.3617 15.9926 40.9445 16.7503C40.9445 17.5079 40.7988 18.1879 40.5074 18.7902C40.2354 19.373 39.7885 19.6644 39.1668 19.6644C38.856 19.6644 38.516 19.4507 38.1469 19.0233C37.7777 18.5959 37.4378 18.3822 37.1269 18.3822C36.6412 18.3822 35.9418 19.2662 35.0287 21.0341C34.1156 22.7826 33.4939 24.4728 33.1636 26.1048L32.6391 28.6984C32.0951 28.815 31.5414 28.8733 30.978 28.8733C30.4146 28.8733 29.8512 28.815 29.2877 28.6984L31.0363 19.577C31.0751 19.3827 31.0945 19.1593 31.0945 18.9068C31.0945 18.4405 30.9974 18.2073 30.8031 18.2073C30.5311 18.2073 30.1426 18.4113 29.6374 18.8193C29.1517 19.2273 28.8312 19.5382 28.6758 19.7519C28.6369 19.7519 28.5301 19.6547 28.3552 19.4604C28.1998 19.2662 28.1221 19.1302 28.1221 19.0525C28.3358 18.5279 29.0255 17.8285 30.1911 16.9542C31.3762 16.0606 32.3768 15.6137 33.1928 15.6137Z" fill="#174865"/>
<path d="M47.815 15.6137C48.8252 15.6137 49.6995 15.8566 50.4377 16.3423C51.176 16.828 51.5451 17.4885 51.5451 18.3239C51.5451 19.0427 51.2537 19.7422 50.6709 20.4221C50.088 21.1021 49.3983 21.6558 48.6018 22.0832C47.8053 22.5106 47.0281 22.8506 46.2705 23.1032C45.5322 23.3557 44.9591 23.482 44.5511 23.482C44.4734 23.482 44.4345 23.5792 44.4345 23.7734C44.4345 24.9197 44.5997 25.6968 44.9299 26.1048C45.2796 26.5128 45.7362 26.7168 46.2996 26.7168C46.8824 26.7168 47.4653 26.5128 48.0481 26.1048C48.6309 25.6774 49.0292 25.318 49.2429 25.0265C49.2818 25.0265 49.3789 25.1237 49.5343 25.318C49.7092 25.5122 49.7966 25.6482 49.7966 25.7259C49.5635 26.2699 48.9321 26.9305 47.9024 27.7076C46.8727 28.4847 45.9013 28.8733 44.9882 28.8733C43.5894 28.8733 42.5306 28.4653 41.8118 27.6493C41.1123 26.8139 40.7626 25.6385 40.7626 24.1231C40.7626 22.7243 41.0832 21.3644 41.7243 20.0433C42.3849 18.7222 43.2591 17.6537 44.3471 16.8377C45.4545 16.0217 46.6104 15.6137 47.815 15.6137ZM47.5236 17.1874C47.0184 17.1874 46.4259 17.7217 45.7459 18.7902C45.0854 19.8393 44.7551 20.8787 44.7551 21.9084C44.7551 21.9861 44.7939 22.0249 44.8716 22.0249C45.7848 22.0249 46.5716 21.6072 47.2321 20.7718C47.8927 19.9364 48.223 19.1205 48.223 18.3239C48.223 17.5662 47.9898 17.1874 47.5236 17.1874Z" fill="#174865"/>
<path d="M56.7837 15.6137C57.2305 15.6137 57.5996 15.7594 57.8911 16.0509C58.1825 16.3228 58.3282 16.7308 58.3282 17.2748C58.3282 17.5079 58.2505 18.1296 58.0951 19.1399C58.0951 19.1787 58.0853 19.2273 58.0659 19.2856C58.0659 19.3245 58.0562 19.4022 58.0368 19.5187C58.0173 19.6353 57.9979 19.7324 57.9785 19.8102C57.9785 19.8684 57.9785 19.8976 57.9785 19.8976C58.4836 18.8679 59.1442 17.8965 59.9601 16.9834C60.7761 16.0703 61.5047 15.6137 62.1458 15.6137C63.0006 15.6137 63.632 15.9149 64.04 16.5171C64.448 17.1194 64.652 17.8771 64.652 18.7902C64.652 19.2565 64.4966 20.2958 64.1857 21.9084L63.6029 24.9683C63.564 25.0848 63.5446 25.3082 63.5446 25.6385C63.5446 26.1048 63.6417 26.3379 63.836 26.3379C64.108 26.3379 64.4868 26.1339 64.9725 25.7259C65.4777 25.318 65.8079 25.0071 65.9634 24.7934C66.0216 24.7934 66.1285 24.8905 66.2839 25.0848C66.4393 25.2791 66.5171 25.4151 66.5171 25.4928C66.3033 26.0174 65.6039 26.7265 64.4188 27.6202C63.2532 28.4944 62.2623 28.9316 61.4464 28.9316C61.019 28.9316 60.6498 28.7956 60.339 28.5236C60.0476 28.2321 59.9019 27.8144 59.9019 27.2705C59.9019 26.7071 59.999 25.9882 60.1933 25.114L60.8635 21.6461C61.0578 20.6747 61.155 20.1113 61.155 19.9559C61.155 19.5479 61.087 19.2467 60.951 19.0525C60.8344 18.8582 60.6207 18.761 60.3098 18.761C59.8241 18.761 59.1927 19.5867 58.4156 21.2381C57.6385 22.8895 57.114 24.3563 56.842 25.6385L56.23 28.6984C55.8414 28.815 55.2974 28.8733 54.598 28.8733C53.9181 28.8733 53.3449 28.815 52.8787 28.6984L54.6272 19.577C54.666 19.3827 54.6855 19.1593 54.6855 18.9068C54.6855 18.4405 54.5883 18.2073 54.394 18.2073C54.1221 18.2073 53.7335 18.4113 53.2284 18.8193C52.7427 19.2273 52.4221 19.5382 52.2667 19.7519C52.2278 19.7519 52.121 19.6547 51.9461 19.4604C51.7907 19.2662 51.713 19.1302 51.713 19.0525C51.9267 18.5279 52.6164 17.8285 53.7821 16.9542C54.9672 16.0606 55.9677 15.6137 56.7837 15.6137Z" fill="#174865"/>
<path d="M69.57 13.3407C69.5894 13.2241 69.8905 13.1367 70.4734 13.0784C71.0562 13.0007 71.6099 12.9618 72.1344 12.9618C72.5036 12.9618 72.8047 13.0007 73.0378 13.0784L72.3676 16.1966H74.9029C75.0972 16.1966 75.1943 16.3617 75.1943 16.692C75.1943 17.1582 75.0778 17.5662 74.8446 17.9159H72.047L70.6774 24.9683C70.6385 25.0848 70.6191 25.3082 70.6191 25.6385C70.6191 26.1048 70.7162 26.3379 70.9105 26.3379C71.1825 26.3379 71.5613 26.1339 72.047 25.7259C72.5327 25.318 72.863 25.0071 73.0378 24.7934C73.0767 24.7934 73.1738 24.8905 73.3293 25.0848C73.5041 25.2791 73.5915 25.4151 73.5915 25.4928C73.3778 26.0174 72.6784 26.7265 71.4933 27.6202C70.3276 28.4944 69.3368 28.9316 68.5209 28.9316C68.074 28.9316 67.7049 28.7956 67.4135 28.5236C67.122 28.2321 66.9763 27.8144 66.9763 27.2705C66.9763 27.0568 67.0152 26.6876 67.0929 26.1631C67.1706 25.6191 67.2289 25.2694 67.2678 25.114L68.6666 17.9159H67.0346C66.9569 17.9159 66.9181 17.7994 66.9181 17.5662C66.9181 17.3525 66.9569 17.1 67.0346 16.8085C67.1318 16.4977 67.2289 16.2937 67.326 16.1966H69.0163L69.57 13.3407Z" fill="#174865"/>
<path d="M83.2305 17.8576C82.7837 17.8576 82.3562 18.0811 81.9483 18.5279C81.5403 18.9748 81.1906 19.4604 80.8992 19.985L79.7918 25.7259C79.6946 26.2311 79.7043 26.5905 79.8209 26.8042C79.9375 27.0179 80.19 27.1248 80.5786 27.1248C81.1031 27.1248 81.6471 26.7459 82.2105 25.9882C82.7934 25.2305 83.2791 24.2494 83.6676 23.0449C84.0562 21.8404 84.2505 20.6553 84.2505 19.4896C84.2505 19.0816 84.1533 18.7125 83.959 18.3822C83.7648 18.0325 83.5219 17.8576 83.2305 17.8576ZM84.6002 15.6137C85.6298 15.6137 86.4264 16.0606 86.9898 16.9542C87.5532 17.8479 87.8349 18.8582 87.8349 19.985C87.8349 21.1312 87.5921 22.2678 87.1064 23.3946C86.6207 24.502 86.0087 25.454 85.2704 26.2505C84.5516 27.0276 83.7453 27.659 82.8517 28.1447C81.958 28.6304 81.1129 28.8733 80.3163 28.8733C79.85 28.8733 79.4906 28.7567 79.2381 28.5236L78.5387 32.0789C78.4998 32.3509 78.4804 32.5549 78.4804 32.6909C78.4804 33.2931 78.6941 33.6428 79.1215 33.74C79.4323 33.8177 79.7723 33.8565 80.1415 33.8565C80.2775 33.8565 80.3455 33.9731 80.3455 34.2062C80.3455 34.5171 80.3066 34.7308 80.2289 34.8474C78.5969 34.8474 77.4993 34.8571 76.9359 34.8765C75.7702 34.9154 74.5559 35.0028 73.2931 35.1388C73.2348 35.1193 73.2057 35.0319 73.2057 34.8765C73.2057 34.4685 73.2543 34.2257 73.3514 34.1479C74.0508 34.1091 74.5268 33.9342 74.7794 33.6234C74.8376 33.5263 74.9542 33.0697 75.1291 32.2537L76.9941 22.7535L75.8868 23.6569C75.673 23.3849 75.5662 23.1032 75.5662 22.8118C75.5662 22.6369 75.6342 22.4815 75.7702 22.3455C76.4307 21.7044 76.9553 21.209 77.3438 20.8593L78.3347 15.7886C78.9175 15.672 79.4809 15.6137 80.0249 15.6137C80.5883 15.6137 81.1517 15.672 81.7151 15.7886L81.3071 17.6537C81.346 17.6148 81.4431 17.4885 81.5986 17.2748C81.754 17.0611 81.9094 16.8863 82.0648 16.7503C82.2397 16.5948 82.4437 16.42 82.6768 16.2257C82.9294 16.0314 83.2208 15.8857 83.5511 15.7886C83.8813 15.672 84.231 15.6137 84.6002 15.6137Z" fill="#174865"/>
<path d="M97.3282 15.6137C97.9499 15.6137 98.5036 15.6817 98.9893 15.8177C99.4944 15.9537 99.8538 16.0994 100.068 16.2548L98.3773 24.9683C98.3384 25.0848 98.319 25.3082 98.319 25.6385C98.319 26.1048 98.4161 26.3379 98.6104 26.3379C98.8824 26.3379 99.2612 26.1339 99.7469 25.7259C100.233 25.318 100.563 25.0071 100.738 24.7934C100.777 24.7934 100.874 24.8905 101.029 25.0848C101.204 25.2791 101.291 25.4151 101.291 25.4928C101.078 26.0174 100.378 26.7265 99.1932 27.6202C98.0276 28.4944 97.0367 28.9316 96.2208 28.9316C95.7739 28.9316 95.4048 28.7956 95.1134 28.5236C94.822 28.2321 94.6763 27.8436 94.6763 27.3579C94.6763 27.2219 94.6763 27.0956 94.6763 26.979C94.6957 26.7459 94.7151 26.5808 94.7345 26.4836C93.8214 28.1156 92.7626 28.9316 91.5581 28.9316C90.4895 28.9316 89.6541 28.5333 89.0519 27.7367C88.4496 26.9402 88.1485 25.9008 88.1485 24.6186C88.1485 23.6277 88.3816 22.6078 88.8479 21.5587C89.3336 20.4901 89.965 19.5187 90.7421 18.6445C91.5387 17.7508 92.5198 17.0222 93.6854 16.4588C94.8511 15.8954 96.0654 15.6137 97.3282 15.6137ZM95.6379 17.4788C95.0551 17.4788 94.5014 17.7799 93.9769 18.3822C93.4717 18.965 93.054 19.6742 92.7238 20.5096C92.4129 21.345 92.1701 22.1804 91.9952 23.0158C91.8204 23.8317 91.7329 24.5214 91.7329 25.0848C91.7329 26.1728 92.0341 26.7168 92.6363 26.7168C93.258 26.7168 93.8797 26.0465 94.5014 24.706C95.1231 23.346 95.5894 21.8792 95.9002 20.3056L96.4248 17.6828C96.2888 17.5468 96.0265 17.4788 95.6379 17.4788Z" fill="#174865"/>
<path d="M106.18 15.6137C106.627 15.6137 106.996 15.7594 107.288 16.0509C107.579 16.3228 107.725 16.7308 107.725 17.2748C107.725 17.4885 107.686 17.8674 107.608 18.4113C107.531 18.9359 107.472 19.2759 107.433 19.4313L106.355 24.9683C106.316 25.0848 106.297 25.3082 106.297 25.6385C106.297 26.1048 106.394 26.3379 106.588 26.3379C106.86 26.3379 107.239 26.1339 107.725 25.7259C108.23 25.318 108.56 25.0071 108.716 24.7934C108.774 24.7934 108.881 24.8905 109.036 25.0848C109.192 25.2791 109.269 25.4151 109.269 25.4928C109.056 26.0174 108.356 26.7265 107.171 27.6202C106.005 28.4944 105.015 28.9316 104.199 28.9316C103.771 28.9316 103.402 28.7956 103.091 28.5236C102.8 28.2321 102.654 27.8144 102.654 27.2705C102.654 27.0568 102.693 26.6876 102.771 26.1631C102.848 25.6191 102.907 25.2694 102.946 25.114L104.024 19.577C104.063 19.3827 104.082 19.1593 104.082 18.9068C104.082 18.4405 103.985 18.2073 103.791 18.2073C103.519 18.2073 103.13 18.4113 102.625 18.8193C102.139 19.2273 101.819 19.5382 101.663 19.7519C101.624 19.7519 101.518 19.6547 101.343 19.4604C101.187 19.2662 101.11 19.1302 101.11 19.0525C101.323 18.5279 102.013 17.8285 103.179 16.9542C104.364 16.0606 105.364 15.6137 106.18 15.6137ZM107.113 8.67796C107.599 8.67796 107.997 8.85281 108.308 9.20251C108.638 9.55222 108.803 9.97963 108.803 10.4848C108.803 11.1259 108.57 11.699 108.104 12.2041C107.657 12.7093 107.132 12.9618 106.53 12.9618C106.044 12.9618 105.636 12.787 105.306 12.4373C104.995 12.0876 104.84 11.6504 104.84 11.1259C104.84 10.4848 105.063 9.92135 105.51 9.43565C105.976 8.93052 106.511 8.67796 107.113 8.67796Z" fill="#174865"/>
<path d="M117.772 15.6429C117.83 15.6429 117.879 15.6429 117.917 15.6429L118.471 12.9327C118.646 11.8836 118.733 11.2813 118.733 11.1259C118.733 10.6985 118.257 10.4848 117.305 10.4848C117.247 10.4848 117.218 10.407 117.218 10.2516C117.218 9.97963 117.305 9.75621 117.48 9.58136C117.966 9.58136 118.763 9.44536 119.87 9.17337C120.997 8.90138 121.803 8.65853 122.289 8.44482C122.483 8.54196 122.58 8.75567 122.58 9.08595C122.58 9.20251 122.541 9.43565 122.464 9.78535C122.405 10.1156 122.328 10.475 122.23 10.8636C122.153 11.2522 122.104 11.5047 122.085 11.6213L119.491 24.9683C119.452 25.0848 119.433 25.3082 119.433 25.6385C119.433 26.1048 119.53 26.3379 119.724 26.3379C120.016 26.3379 120.404 26.1339 120.89 25.7259C121.376 25.318 121.696 25.0071 121.852 24.7934C121.91 24.7934 122.017 24.8905 122.172 25.0848C122.328 25.2791 122.405 25.4151 122.405 25.4928C122.211 26.0174 121.521 26.7265 120.336 27.6202C119.171 28.4944 118.17 28.9316 117.335 28.9316C116.907 28.9316 116.538 28.7956 116.227 28.5236C115.936 28.2321 115.79 27.8436 115.79 27.3579C115.79 27.2025 115.8 27.0568 115.819 26.9208C115.839 26.7265 115.858 26.5808 115.878 26.4836C114.945 28.1156 113.876 28.9316 112.672 28.9316C111.623 28.9316 110.787 28.5333 110.166 27.7367C109.563 26.9402 109.262 25.9008 109.262 24.6186C109.262 23.6472 109.476 22.6563 109.903 21.6461C110.331 20.6164 110.914 19.6742 111.652 18.8193C112.39 17.9645 113.294 17.2457 114.362 16.6628C115.45 16.0606 116.587 15.7206 117.772 15.6429ZM117.451 18.2073C117.49 17.9548 117.432 17.7702 117.276 17.6537C117.121 17.5371 116.946 17.4788 116.752 17.4788C116.188 17.4788 115.644 17.7799 115.12 18.3822C114.595 18.965 114.178 19.6742 113.867 20.5096C113.556 21.345 113.303 22.1804 113.109 23.0158C112.934 23.8317 112.847 24.5214 112.847 25.0848C112.847 26.1728 113.148 26.7168 113.75 26.7168C114.391 26.7168 115.013 26.0659 115.615 24.7643C116.218 23.4432 116.694 21.9569 117.043 20.3056L117.451 18.2073Z" fill="#174865"/>
<path d="M126.915 26.7751C126.799 27.3773 126.507 27.9019 126.041 28.3487C125.594 28.7956 125.099 29.019 124.555 29.019C123.991 29.019 123.545 28.7956 123.214 28.3487C122.903 27.8824 122.806 27.3579 122.923 26.7751C123.039 26.1922 123.331 25.6968 123.797 25.2888C124.283 24.8614 124.798 24.6477 125.342 24.6477C125.886 24.6477 126.313 24.8614 126.624 25.2888C126.935 25.6968 127.032 26.1922 126.915 26.7751Z" fill="#174865"/>
<path d="M133.086 15.6137C133.533 15.6137 133.902 15.7594 134.194 16.0509C134.485 16.3228 134.631 16.7308 134.631 17.2748C134.631 17.4885 134.592 17.8674 134.514 18.4113C134.437 18.9359 134.378 19.2759 134.339 19.4313L133.261 24.9683C133.222 25.0848 133.203 25.3082 133.203 25.6385C133.203 26.1048 133.3 26.3379 133.494 26.3379C133.766 26.3379 134.145 26.1339 134.631 25.7259C135.136 25.318 135.466 25.0071 135.622 24.7934C135.68 24.7934 135.787 24.8905 135.942 25.0848C136.098 25.2791 136.175 25.4151 136.175 25.4928C135.962 26.0174 135.262 26.7265 134.077 27.6202C132.912 28.4944 131.921 28.9316 131.105 28.9316C130.677 28.9316 130.308 28.7956 129.997 28.5236C129.706 28.2321 129.56 27.8144 129.56 27.2705C129.56 27.0568 129.599 26.6876 129.677 26.1631C129.755 25.6191 129.813 25.2694 129.852 25.114L130.93 19.577C130.969 19.3827 130.988 19.1593 130.988 18.9068C130.988 18.4405 130.891 18.2073 130.697 18.2073C130.425 18.2073 130.036 18.4113 129.531 18.8193C129.045 19.2273 128.725 19.5382 128.569 19.7519C128.531 19.7519 128.424 19.6547 128.249 19.4604C128.093 19.2662 128.016 19.1302 128.016 19.0525C128.229 18.5279 128.919 17.8285 130.085 16.9542C131.27 16.0606 132.27 15.6137 133.086 15.6137ZM134.019 8.67796C134.505 8.67796 134.903 8.85281 135.214 9.20251C135.544 9.55222 135.709 9.97963 135.709 10.4848C135.709 11.1259 135.476 11.699 135.01 12.2041C134.563 12.7093 134.038 12.9618 133.436 12.9618C132.95 12.9618 132.542 12.787 132.212 12.4373C131.901 12.0876 131.746 11.6504 131.746 11.1259C131.746 10.4848 131.969 9.92135 132.416 9.43565C132.882 8.93052 133.417 8.67796 134.019 8.67796Z" fill="#174865"/>
<path d="M144.678 15.6429C144.736 15.6429 144.785 15.6429 144.824 15.6429L145.377 12.9327C145.552 11.8836 145.64 11.2813 145.64 11.1259C145.64 10.6985 145.164 10.4848 144.212 10.4848C144.153 10.4848 144.124 10.407 144.124 10.2516C144.124 9.97963 144.212 9.75621 144.386 9.58136C144.872 9.58136 145.669 9.44536 146.776 9.17337C147.903 8.90138 148.709 8.65853 149.195 8.44482C149.389 8.54196 149.486 8.75567 149.486 9.08595C149.486 9.20251 149.447 9.43565 149.37 9.78535C149.311 10.1156 149.234 10.475 149.137 10.8636C149.059 11.2522 149.01 11.5047 148.991 11.6213L146.397 24.9683C146.358 25.0848 146.339 25.3082 146.339 25.6385C146.339 26.1048 146.436 26.3379 146.63 26.3379C146.922 26.3379 147.31 26.1339 147.796 25.7259C148.282 25.318 148.602 25.0071 148.758 24.7934C148.816 24.7934 148.923 24.8905 149.078 25.0848C149.234 25.2791 149.311 25.4151 149.311 25.4928C149.117 26.0174 148.427 26.7265 147.242 27.6202C146.077 28.4944 145.076 28.9316 144.241 28.9316C143.813 28.9316 143.444 28.7956 143.133 28.5236C142.842 28.2321 142.696 27.8436 142.696 27.3579C142.696 27.2025 142.706 27.0568 142.725 26.9208C142.745 26.7265 142.764 26.5808 142.784 26.4836C141.851 28.1156 140.783 28.9316 139.578 28.9316C138.529 28.9316 137.694 28.5333 137.072 27.7367C136.47 26.9402 136.168 25.9008 136.168 24.6186C136.168 23.6472 136.382 22.6563 136.81 21.6461C137.237 20.6164 137.82 19.6742 138.558 18.8193C139.296 17.9645 140.2 17.2457 141.268 16.6628C142.356 16.0606 143.493 15.7206 144.678 15.6429ZM144.357 18.2073C144.396 17.9548 144.338 17.7702 144.182 17.6537C144.027 17.5371 143.852 17.4788 143.658 17.4788C143.094 17.4788 142.551 17.7799 142.026 18.3822C141.501 18.965 141.084 19.6742 140.773 20.5096C140.462 21.345 140.209 22.1804 140.015 23.0158C139.84 23.8317 139.753 24.5214 139.753 25.0848C139.753 26.1728 140.054 26.7168 140.656 26.7168C141.297 26.7168 141.919 26.0659 142.521 24.7643C143.124 23.4432 143.6 21.9569 143.949 20.3056L144.357 18.2073Z" fill="#174865"/>
</svg>
